<?xml version="1.0" encoding="UTF-8"?>
<svg version="1.1" xmlns="http://www.w3.org/2000/svg" width="93" height="33">
<path d="M0 0 C2.375 -0.125 2.375 -0.125 5 0 C6.95216435 1.95216435 7.84826645 3.53199953 9 6 C9.66 4.02 10.32 2.04 11 0 C12.98 0 14.96 0 17 0 C17.99 2.97 18.98 5.94 20 9 C20.515625 8.34 21.03125 7.68 21.5625 7 C24 5 24 5 27.5 4.5 C31 5 31 5 33.4375 6.5625 C35.61348954 9.95704368 35.55627159 12.0365649 35 16 C33.4375 18.9375 33.4375 18.9375 31 21 C27.4375 21.5 27.4375 21.5 24 21 C22.0625 19.5 22.0625 19.5 21 18 C20.67 18.99 20.34 19.98 20 21 C12.33333333 21 4.66666667 21 -3 21 C-2.22095672 6.21867882 -2.22095672 6.21867882 0 0 Z M27 11 C27 12.32 27 13.64 27 15 C27.66 14.67 28.32 14.34 29 14 C28.67 13.01 28.34 12.02 28 11 C27.67 11 27.34 11 27 11 Z " fill="#103458" transform="translate(3,1)"/>
<path d="M0 0 C0.99 0.33 1.98 0.66 3 1 C3 2.65 3 4.3 3 6 C3.99 4.35 4.98 2.7 6 1 C8 2 8 2 9.25 4.875 C9.4975 5.90625 9.745 6.9375 10 8 C9.34 8.99 8.68 9.98 8 11 C8.061875 11.94875 8.12375 12.8975 8.1875 13.875 C8 17 8 17 5.875 19.875 C3 22 3 22 -0.0625 22.5625 C-3.70693151 21.86463014 -4.90889337 21.05623277 -7 18 C-7.25 14.75 -7.25 14.75 -7 12 C-8.32 12 -9.64 12 -11 12 C-11 13.32 -11 14.64 -11 16 C-10.01 16 -9.02 16 -8 16 C-8 17.98 -8 19.96 -8 22 C-11.375 22.125 -11.375 22.125 -15 22 C-17 20 -17 20 -17.1953125 18.0546875 C-17.13020833 16.03645833 -17.06510417 14.01822917 -17 12 C-17.99 12 -18.98 12 -20 12 C-19.98839844 12.63808594 -19.97679687 13.27617187 -19.96484375 13.93359375 C-19.95582031 14.75988281 -19.94679688 15.58617187 -19.9375 16.4375 C-19.92589844 17.26121094 -19.91429687 18.08492187 -19.90234375 18.93359375 C-20 21 -20 21 -21 22 C-22.98 22 -24.96 22 -27 22 C-27 17.38 -27 12.76 -27 8 C-25.02 8 -23.04 8 -21 8 C-20.67 7.34 -20.34 6.68 -20 6 C-19.01 6 -18.02 6 -17 6 C-17 4.35 -17 2.7 -17 1 C-15.02 1 -13.04 1 -11 1 C-11 2.65 -11 4.3 -11 6 C-8.92446352 6.5534764 -7.15634036 7 -5 7 C-4.67 5.68 -4.34 4.36 -4 3 C-3.34 3 -2.68 3 -2 3 C-1.34 2.01 -0.68 1.02 0 0 Z M-1 12 C-1 13.32 -1 14.64 -1 16 C-0.34 16 0.32 16 1 16 C1 14.68 1 13.36 1 12 C0.34 12 -0.32 12 -1 12 Z " fill="#103458" transform="translate(83,0)"/>
<path d="M0 0 C0.97710937 -0.02578125 1.95421875 -0.0515625 2.9609375 -0.078125 C5.625 0.25 5.625 0.25 7.46484375 1.34765625 C9.21031126 4.2097528 8.9108722 6.62563585 8.8125 9.9375 C8.78542969 11.11699219 8.75835937 12.29648437 8.73046875 13.51171875 C8.69566406 14.41535156 8.66085938 15.31898437 8.625 16.25 C3.625 16.25 -1.375 16.25 -6.375 16.25 C-6.40185095 13.77076199 -6.42176547 11.2918116 -6.4375 8.8125 C-6.45006836 7.75192383 -6.45006836 7.75192383 -6.46289062 6.66992188 C-6.47153588 4.86306441 -6.42720011 3.05612397 -6.375 1.25 C-4.64280072 -0.48219928 -2.35473192 0.03708239 0 0 Z " fill="#103458" transform="translate(45.375,5.75)"/>
<path d="M0 0 C4.875 0.875 4.875 0.875 6 2 C7.52519276 1.91062197 9.04681929 1.75462854 10.5625 1.5625 C11.38878906 1.46066406 12.21507813 1.35882812 13.06640625 1.25390625 C13.70449219 1.17011719 14.34257813 1.08632813 15 1 C15.5534764 3.07553648 16 4.84365964 16 7 C10.72 7 5.44 7 0 7 C0 4.69 0 2.38 0 0 Z " fill="#103557" transform="translate(53,26)"/>
<path d="M0 0 C1.75032844 0.14183696 3.50025534 0.28863429 5.25 0.4375 C6.71179688 0.55931641 6.71179688 0.55931641 8.203125 0.68359375 C10.56461753 0.95074584 12.71901065 1.35371968 15 2 C14.67 3.65 14.34 5.3 14 7 C5.42857143 7.28571429 5.42857143 7.28571429 2 5 C2 5.66 2 6.32 2 7 C1.34 7 0.68 7 0 7 C0 4.69 0 2.38 0 0 Z M11 3 C12 5 12 5 12 5 Z " fill="#103557" transform="translate(24,26)"/>
<path d="M0 0 C1.32 0.66 2.64 1.32 4 2 C3.67 3.65 3.34 5.3 3 7 C1.35 7 -0.3 7 -2 7 C-2.33 5.35 -2.66 3.7 -3 2 C-2.01 1.34 -1.02 0.68 0 0 Z " fill="#103458" transform="translate(59,0)"/>
<path d="M0 0 C2.31 0 4.62 0 7 0 C6.34 1.65 5.68 3.3 5 5 C2.03 4.505 2.03 4.505 -1 4 C-0.67 2.68 -0.34 1.36 0 0 Z " fill="#103658" transform="translate(45,28)"/>
<path d="M0 0 C0.66 0 1.32 0 2 0 C1.67 2.31 1.34 4.62 1 7 C-0.0625 5.1875 -0.0625 5.1875 -1 3 C-0.67 2.01 -0.34 1.02 0 0 Z " fill="#103457" transform="translate(42,26)"/>
</svg>
